# xmcd
#
# Track frame offsets:
#	150
#	13497
#	28740
#	42982
#	58270
#	71785
#	86200
#	100122
#	114675
#	129342
#	143090
#
# Disc length: 2114 seconds
#
# Revision: 1967861625
# Processed by: cddbd v1.5.2PL0 Copyright (c) Steve Scherf et al.
# Submitted via: EZCDAudioConverter 7.1.0.1
#
DISCID=a308400b
DTITLE=Smile.dk - Smile
DYEAR=1998
DGENRE=
TTITLE0=Butterfly
TTITLE1=Coconut
TTITLE2=Sweet Senorito
TTITLE3=Middle of the Night
TTITLE4=Tic Toc
TTITLE5=Get Out
TTITLE6=Boys
TTITLE7=Mr. Wonderful
TTITLE8=Knock Knock
TTITLE9=Comme Ci Comme Ca
TTITLE10=Happy in Love
EXTD=
EXTT0=
EXTT1=
EXTT2=
EXTT3=
EXTT4=
EXTT5=
EXTT6=
EXTT7=
EXTT8=
EXTT9=
EXTT10=
PLAYORDER=
